HIERARCHY
ROOT RootJoint
{
    OFFSET   0.000000   0.000000   0.000000
    CHANNELS 6 Xposition Yposition Zposition Xrotation Yrotation Zrotation
    JOINT pelvis_lowerback
    {
        OFFSET   0.000000   0.093605   0.000000
        CHANNELS 3 Xrotation Yrotation Zrotation
        JOINT lowerback_torso
        {
            OFFSET   0.000000   0.100000   0.000000
            CHANNELS 3 Xrotation Yrotation Zrotation
            JOINT torso_head
            {
                OFFSET   0.000000   0.282350   0.000000
                CHANNELS 3 Xrotation Yrotation Zrotation
                End Site
                {
                    OFFSET   0.000000   0.192650   0.000000
                }
            }
            JOINT rTorso_Clavicle
            {
                OFFSET  -0.001000   0.157500   0.000000
                CHANNELS 3 Xrotation Yrotation Zrotation
                JOINT rShoulder
                {
                    OFFSET  -0.117647   0.000000   0.000000
                    CHANNELS 3 Xrotation Yrotation Zrotation
                    JOINT rElbow
                    {
                        OFFSET  -0.245000   0.000000   0.000000
                        CHANNELS 3 Xrotation Yrotation Zrotation
                        JOINT rWrist
                        {
                            OFFSET  -0.240000   0.000000   0.000000
                            CHANNELS 3 Xrotation Yrotation Zrotation
                            End Site
                            {
                                OFFSET  -0.116353  -0.002500   0.000000
                            }
                        }
                    }
                }
            }
            JOINT lTorso_Clavicle
            {
                OFFSET   0.001000   0.157500   0.000000
                CHANNELS 3 Xrotation Yrotation Zrotation
                JOINT lShoulder
                {
                    OFFSET   0.117647   0.000000   0.000000
                    CHANNELS 3 Xrotation Yrotation Zrotation
                    JOINT lElbow
                    {
                        OFFSET   0.245000   0.000000   0.000000
                        CHANNELS 3 Xrotation Yrotation Zrotation
                        JOINT lWrist
                        {
                            OFFSET   0.240000   0.000000   0.000000
                            CHANNELS 3 Xrotation Yrotation Zrotation
                            End Site
                            {
                                OFFSET   0.116353  -0.002500   0.000000
                            }
                        }
                    }
                }
            }
        }
    }
    JOINT rHip
    {
        OFFSET  -0.100000  -0.051395   0.000000
        CHANNELS 3 Xrotation Yrotation Zrotation
        JOINT rKnee
        {
            OFFSET   0.000000  -0.410000   0.000000
            CHANNELS 3 Xrotation Yrotation Zrotation
            JOINT rAnkle
            {
                OFFSET   0.000000  -0.390000   0.000000
                CHANNELS 3 Xrotation Yrotation Zrotation
                JOINT rToeJoint
                {
                    OFFSET   0.000000  -0.050000   0.130000
                    CHANNELS 3 Xrotation Yrotation Zrotation
                    End Site
                    {
                        OFFSET  -0.010000   0.002000   0.060000
                    }
                }
            }
        }
    }
    JOINT lHip
    {
        OFFSET   0.100000  -0.051395   0.000000
        CHANNELS 3 Xrotation Yrotation Zrotation
        JOINT lKnee
        {
            OFFSET   0.000000  -0.410000   0.000000
            CHANNELS 3 Xrotation Yrotation Zrotation
            JOINT lAnkle
            {
                OFFSET   0.000000  -0.390000   0.000000
                CHANNELS 3 Xrotation Yrotation Zrotation
                JOINT lToeJoint
                {
                    OFFSET   0.000000  -0.050000   0.130000
                    CHANNELS 3 Xrotation Yrotation Zrotation
                    End Site
                    {
                        OFFSET   0.010000   0.002000   0.060000
                    }
                }
            }
        }
    }
}
MOTION
Frames: 14
Frame Time:   0.008333
 -2.376719   0.925631   3.975860   0.000000   0.000000   0.000000   0.000000   0.000000   0.000000   0.000000   0.000000   0.000000   0.000000   0.000000   0.000000   0.000000   0.000000   0.000000   0.000000   0.000000   0.000000   0.000000   0.000000   0.000000   0.000000   0.000000   0.000000   0.000000   0.000000   0.000000   0.000000   0.000000   0.000000   0.000000   0.000000   0.000000   0.000000   0.000000   0.000000   0.000000   0.000000   0.000000   0.000000   0.000000   0.000000   0.000000   0.000000   0.000000   0.000000   0.000000   0.000000   0.000000   0.000000   0.000000   0.000000   0.000000   0.000000   0.000000   0.000000   0.000000   0.000000   0.000000   0.000000
 -2.376647   0.925432   3.974006   1.055729  -0.027409   0.206130  -1.020983   0.010092  -0.250186   0.343124  -0.122815  -0.066312  -0.431751   0.031052  -0.035965   0.679168  -0.523285  -0.401837   2.082796  -0.358453   2.191901   0.056935   3.666430  -0.101715  -0.164089  -1.012796  -1.649452   0.576672   0.574318   0.471456   2.664837   0.674060  -1.818216   0.049894  -3.668252   0.116980  -0.116971   0.901466   1.323529  -1.742948  -0.139173  -0.387946   0.817491   0.001287  -0.001250  -0.319419  -0.325349   0.110676   0.056722   0.000035  -0.000247  -1.682430  -0.158380  -0.093523   0.982449  -0.000981  -0.001631  -0.500817   0.289630   0.169724   0.334030  -0.000819   0.000288
 -2.376601   0.925173   3.971406   2.031691  -0.097191   0.433285  -1.807953   0.029522  -0.522379   0.785852  -0.232535  -0.158013  -0.827202   0.056767  -0.090088   1.336371  -0.966290  -0.384310   4.157756  -0.537726   4.734384   0.142079   7.437026  -0.194060  -0.226414  -1.116356  -2.918618   1.143965   1.094502   0.569101   5.237580   1.177328  -3.871411   0.126138  -7.427417   0.219549  -0.119925   0.964710   2.328988  -3.545689  -0.259841  -0.922933   1.564054   0.003002  -0.002464  -0.614578  -0.636837   0.209160   0.114866   0.000132  -0.000466  -3.332378  -0.315310  -0.084154   1.927102  -0.002796  -0.003243  -0.967972   0.561659   0.332091   0.627977  -0.001672   0.000323
 -2.376557   0.924626   3.968383   2.925458  -0.173409   0.652210  -2.415788   0.048381  -0.784607   1.301617  -0.334148  -0.245714  -1.178296   0.080030  -0.150381   1.951450  -1.300924  -0.058922   6.119329  -0.557837   7.380259   0.237723  11.231309  -0.270925  -0.267677  -0.937976  -3.703035   1.676799   1.509441   0.386532   7.650123   1.504186  -6.006628   0.212837 -11.208190   0.303950  -0.108270   0.773892   2.922807  -5.335892  -0.350831  -1.549293   2.214451   0.004670  -0.003283  -0.891478  -0.930134   0.297983   0.162273   0.000234  -0.000584  -4.900239  -0.470825   0.035120   2.794456  -0.004891  -0.004383  -1.405775   0.815241   0.486690   0.890092  -0.002456   0.000291
 -2.376776   0.924421   3.965344   3.790503  -0.304854   0.827348  -2.942234   0.086841  -1.036289   1.838648  -0.413882  -0.307461  -1.490741   0.102483  -0.209070   2.526964  -1.542674   0.535301   7.944571  -0.434670  10.044067   0.336064  15.043838  -0.332518  -0.298482  -0.625482  -4.089709   2.176447   1.843670  -0.020754   9.909198   1.677455  -8.166877   0.303419 -15.003614   0.372115  -0.091679   0.469674   3.202448  -6.982357  -0.543032  -1.762186   3.168409   0.003964  -0.005840  -0.900797  -1.313999   0.576083   0.159883   0.000192  -0.000451  -6.382332  -0.623735   0.303298   3.578323  -0.007031  -0.005394  -1.814322   1.052501   0.633882   1.141176  -0.003239   0.000134
 -2.376754   0.924337   3.962245   4.655123  -0.429440   1.051605  -3.393345   0.116715  -1.280644   2.364751  -0.493867  -0.384547  -1.778911   0.123447  -0.271910   3.063399  -1.716220   1.263955   9.637892  -0.198448  12.649054   0.430223  18.868336  -0.382448  -0.327266  -0.242347  -4.164888   2.644201   2.103470  -0.578970  12.021630   1.709169 -10.312322   0.391102 -18.813785   0.428229  -0.076332   0.086980   3.195282  -8.531205  -0.643278  -2.019430   3.942752   0.003324  -0.006700  -0.981476  -1.604254   0.720968   0.208906   0.000108  -0.000610  -7.819924  -0.778644   0.559938   4.295262  -0.008720  -0.005997  -2.196716   1.273682   0.773722   1.370094  -0.003808  -0.000007
 -2.376500   0.924287   3.959141   5.509415  -0.561052   1.303529  -3.771604   0.147141  -1.505427   2.880614  -0.568880  -0.460175  -2.044036   0.143319  -0.331920   3.560256  -1.831400   2.066962  11.202785   0.132275  15.156318   0.513450  22.620492  -0.420900  -0.353454   0.206702  -4.027486   3.080626   2.301939  -1.229562  13.992463   1.621230 -12.401144   0.472517 -22.636532   0.475321  -0.063722  -0.350405   2.980528 -10.019678  -0.711371  -2.310992   4.618588   0.002851  -0.007066  -1.066470  -1.868924   0.846639   0.245804   0.000061  -0.000664  -9.188873  -0.932417   0.825006   4.950473  -0.010003  -0.006361  -2.555168   1.479587   0.905833   1.575216  -0.004181  -0.000148
 -2.375898   0.924027   3.956730   6.026003  -0.726418   1.412691  -3.865131   0.131239  -1.521864   3.411560  -0.543446  -0.410384  -2.327147   0.064023  -0.602276   4.021946  -2.100393   2.477853  12.977661   0.549845  17.199083   0.578329  26.513882  -0.464358  -0.361856   0.924832  -3.217020   3.510317   2.599399  -1.575076  16.120050   1.165854 -14.533297   0.540911 -26.508780   0.524377  -0.068285  -1.117209   2.343683 -11.203331  -0.801316  -2.464357   5.531610   0.002552  -0.008220  -1.510333  -2.342911   0.754600   0.119608  -0.000103   0.000336 -10.104440  -1.001535   1.254457   5.767538  -0.011866  -0.006419  -3.156468   1.800172   0.836375   1.660449  -0.003673  -0.000035
 -2.375027   0.923670   3.954869   6.478572  -0.876764   1.517811  -3.981710   0.098882  -1.495812   3.915062  -0.528350  -0.344120  -2.581254  -0.010763  -0.847259   4.454597  -2.402883   2.698272  14.626210   0.943305  18.980704   0.621595  30.322135  -0.490914  -0.360187   1.670255  -2.492843   3.917414   2.907185  -1.818732  18.096700   0.691485 -16.463593   0.593773 -30.385253   0.559589  -0.067493  -1.940091   1.672091 -12.300152  -0.884746  -2.631073   6.472743   0.002424  -0.009069  -1.918832  -2.786898   0.662784  -0.021294  -0.000278   0.001178 -10.861698  -1.068700   1.690492   6.594525  -0.013417  -0.006274  -3.715570   2.101833   0.774549   1.737681  -0.003244   0.000046
 -2.373934   0.923274   3.953456   6.901434  -1.000113   1.633189  -4.126536   0.055606  -1.456187   4.365531  -0.525374  -0.276283  -2.818074  -0.079871  -1.068017   4.857870  -2.725032   2.811333  16.156147   1.317107  20.571322   0.642350  33.872220  -0.499615  -0.363507   2.390990  -1.902855   4.299271   3.221612  -1.988836  19.930308   0.218783 -18.212817   0.634908 -34.254578   0.584008  -0.076151  -2.701206   1.064718 -13.326244  -0.955648  -2.824072   7.393735   0.002408  -0.009432  -2.295437  -3.199047   0.571551  -0.147847  -0.000419   0.001687 -11.510779  -1.136699   2.115381   7.394644  -0.014527  -0.005892  -4.235427   2.383860   0.719319   1.814974  -0.002908   0.000114
 -2.372651   0.922862   3.952404   7.302284  -1.097217   1.760175  -4.292677   0.002908  -1.411605   4.765148  -0.535043  -0.210676  -3.042034  -0.143269  -1.270654   5.237650  -3.062868   2.857826  17.580346   1.667200  22.009900   0.646287  37.174804  -0.495748  -0.376208   3.025346  -1.407016   4.656841   3.536871  -2.106786  21.631220  -0.250062 -19.806014   0.664250 -38.036575   0.598452  -0.092760  -3.413370   0.518796 -14.286598  -1.013269  -3.042946   8.278800   0.002465  -0.009393  -2.647747  -3.581112   0.480601  -0.261867  -0.000527   0.001957 -12.074610  -1.204065   2.526572   8.158602  -0.015231  -0.005341  -4.719594   2.647502   0.669999   1.888890  -0.002630   0.000169
 -2.371205   0.922445   3.951644   7.683634  -1.176685   1.898459  -4.473168  -0.059163  -1.365629   5.119798  -0.558340  -0.149411  -3.253996  -0.201127  -1.458349   5.596285  -3.408600   2.860801  18.907717   1.996346  23.320713   0.637798  40.247468  -0.483199  -0.396650   3.573306  -0.975534   4.989362   3.842965  -2.190458  23.207093  -0.719605 -21.264325   0.677668 -41.570906   0.600465  -0.114453  -4.130303   0.018317 -15.186467  -1.057552  -3.284716   9.122833   0.002563  -0.009109  -2.979231  -3.934987   0.390039  -0.365276  -0.000607   0.002070 -12.567300  -1.269599   2.924634   8.883893  -0.015596  -0.004729  -5.170842   2.893993   0.626003   1.958363  -0.002394   0.000207
 -2.369613   0.922027   3.951118   8.046351  -1.245128   2.045895  -4.661160  -0.127974  -1.319748   5.437185  -0.591598  -0.092192  -3.454904  -0.254274  -1.632599   5.935767  -3.758363   2.834090  20.146094   2.305636  24.520792   0.620261  43.106631  -0.464907  -0.422817   4.045434  -0.592030   5.300832   4.142217  -2.247994  24.669662  -1.179935 -22.602276   0.678401 -44.866806   0.593495  -0.142320  -4.803770  -0.447967 -16.030555  -1.089501  -3.545373   9.924503   0.002682  -0.008696  -3.291626  -4.262765   0.300415  -0.459383  -0.000663   0.002079 -13.000065  -1.332979   3.310863   9.570520  -0.015684  -0.004127  -5.591567   3.124423   0.586789   2.023114  -0.002188   0.000230
 -2.368168   0.921674   3.951344   8.221538  -1.196332   2.011702  -4.649204  -0.211984  -1.216887   5.597309  -0.612295   0.101160  -3.505439  -0.257493  -1.784511   6.102476  -4.482951   2.595003  21.293261   2.447544  25.630277   0.594287  46.049767  -0.435411  -0.534326   4.550878   0.094657   5.511987   4.666822  -2.052286  25.761454  -1.718365 -24.009973   0.663890 -48.116630   0.563754  -0.241075  -5.461955  -1.090445 -16.362188  -1.295081  -3.639881  10.225876   0.002327  -0.007447  -3.404752  -4.556553   0.168459  -0.489120  -0.000592   0.001784 -13.124834  -1.295750   3.823454   9.973304  -0.014200  -0.002624  -5.908429   3.266462   0.537647   2.164642  -0.002277   0.000529
